<svg xmlns="http://www.w3.org/2000/svg" xmlns:xlink="http://www.w3.org/1999/xlink" version="1.1" width="256" height="256" viewBox="0 0 256 256" xml:space="preserve">

<defs>
</defs>
<g style="stroke: none; stroke-width: 0; stroke-dasharray: none; stroke-linecap: butt; stroke-linejoin: miter; stroke-miterlimit: 10; fill: none; fill-rule: nonzero; opacity: 1;" transform="translate(1.4065934065934016 1.4065934065934016) scale(2.81 2.81)" >
	<path d="M 81.767 90 c 2.928 0 5.747 -1.613 7.153 -4.407 c 1.985 -3.946 0.395 -8.755 -3.552 -10.741 L 26.024 45 l 59.345 -29.852 c 3.946 -1.985 5.536 -6.794 3.551 -10.741 s -6.791 -5.539 -10.742 -3.552 L 4.628 37.853 C 1.927 39.212 0.223 41.976 0.223 45 s 1.704 5.788 4.405 7.146 l 73.55 36.998 C 79.332 89.724 80.559 90 81.767 90 z" style="stroke: none; stroke-width: 1; stroke-dasharray: none; stroke-linecap: butt; stroke-linejoin: miter; stroke-miterlimit: 10; fill: white; fill-rule: nonzero; opacity: 1;" transform=" matrix(1 0 0 1 0 0) " stroke-linecap="round" />
</g>
</svg>