<svg width="665" height="196" xmlns="http://www.w3.org/2000/svg" xmlns:xlink="http://www.w3.org/1999/xlink">
 <!-- Generator: Sketch 52.2 (67145) - http://www.bohemiancoding.com/sketch -->
 <title>squarespace-logo-horizontal-black</title>
 <desc>Created with Sketch.</desc>
 <defs>
  <polygon points="0.441008333 0.396383333 33.6288333 0.396383333 33.6288333 50.8807167 0.441008333 50.8807167" id="path-1"/>
 </defs>
 <g>
  <title>background</title>
  <rect fill="none" id="canvas_background" height="198" width="667" y="-1" x="-1"/>
 </g>
 <g>
  <title>Layer 1</title>
  <g fill-rule="evenodd" fill="none" id="squarespace-logo-horizontal-black">
   <rect height="196" width="828" y="1" x="-62" opacity="0" fill="#FFFFFF" id="clear-space"/>
   <g id="squarespace-logo">
    <g id="svg_1">
     <path fill="#000000" id="Fill-1" d="m26.15459,102l39.49758,-39.98121c2.68353,-2.71639 6.25409,-4.21004 10.06007,-4.21004c3.80318,0 7.37374,1.49223 10.05447,4.20862l3.0773,3.11498l6.15599,-6.23138l-3.0773,-3.11497c-4.32307,-4.37601 -10.07969,-6.786 -16.21326,-6.786c-6.13077,0.00142 -11.88879,2.41141 -16.21186,6.78883l-39.49758,39.9798l6.15459,6.23137z"/>
     <path fill="#000000" id="Fill-3" d="m79,75.29924l-6.18512,-6.22214l-39.68303,39.92198c-5.57266,5.60602 -14.63985,5.60744 -20.2111,0.00283c-5.57267,-5.60601 -5.57267,-14.72889 0,-20.33491l34.24271,-34.44627l-6.18511,-6.22073l-34.24132,34.44627c-8.98271,9.03648 -8.98271,23.7413 0,32.77637c4.34353,4.36952 10.12738,6.77736 16.28715,6.77736c6.16119,0 11.94786,-2.40926 16.29138,-6.77878l39.68444,-39.92198z"/>
     <path fill="#000000" id="Fill-5" d="m118.26188,82.77607c-4.34213,-4.3696 -10.12601,-6.77607 -16.28863,-6.77607c-6.16121,0.00142 -11.94791,2.40789 -16.29145,6.77891l-39.6818,39.92133l6.18233,6.22226l39.68462,-39.92275c5.57409,-5.60612 14.63991,-5.60471 20.21119,-0.00142c2.69483,2.711 4.17881,6.32 4.17881,10.16553c0,3.84695 -1.48398,7.45737 -4.17881,10.16836l-34.24146,34.44694l6.18514,6.22084l34.24006,-34.44552c8.98416,-9.03665 8.98416,-23.74175 0,-32.77841"/>
     <path fill="#000000" id="Fill-7" d="m98.84552,96l-39.49684,39.98121c-5.54772,5.61292 -14.57064,5.61575 -20.11556,0.00142l-3.07724,-3.11498l-6.15588,6.23138l3.07724,3.11497c4.32299,4.37601 10.0795,6.786 16.21436,6.786c6.13066,-0.00142 11.88717,-2.41141 16.21156,-6.78883l39.49684,-39.9798l-6.15448,-6.23137z"/>
     <path fill="#000000" id="Fill-9" d="m161.47508,109.41051c0.50949,2.55113 1.70342,4.54836 3.57899,5.98739c1.87418,1.44188 4.34042,2.1614 7.39873,2.1614c3.00932,0 5.33559,-0.70809 6.98022,-2.12571c1.64463,-1.41619 2.46624,-3.28207 2.46624,-5.59766c0,-1.13352 -0.21975,-2.09002 -0.65925,-2.86949c-0.4409,-0.77948 -1.05396,-1.44046 -1.84058,-1.98438c-0.78943,-0.54106 -1.76081,-1.00361 -2.91834,-1.3805c-1.15754,-0.37831 -2.45505,-0.77947 -3.89112,-1.2049l-3.74975,-1.06214c-2.2241,-0.61387 -4.21585,-1.35766 -5.97525,-2.23278c-1.7608,-0.8737 -3.26546,-1.90158 -4.51538,-3.08221c-1.24992,-1.18063 -2.2003,-2.53829 -2.84836,-4.0744c-0.64805,-1.53468 -0.97278,-3.31919 -0.97278,-5.34925c0,-2.12571 0.41711,-4.08582 1.25132,-5.88175c0.83281,-1.79308 2.01414,-3.33061 3.5426,-4.60547c1.52845,-1.27486 3.38023,-2.27846 5.55814,-3.01226c2.17511,-0.7295 4.62875,-1.0964 7.36233,-1.0964c5.14104,0 9.21552,1.23916 12.22764,3.71892c3.00932,2.48119 4.76872,5.79895 5.2796,9.95615l-8.33651,0.70809c-0.51089,-2.12571 -1.52845,-3.77888 -3.05691,-4.95951c-1.52845,-1.18063 -3.65877,-1.77166 -6.39095,-1.77166c-2.54743,0 -4.53917,0.60245 -5.97385,1.80735c-1.43748,1.2049 -2.15551,2.75243 -2.15551,4.64116c0,1.08641 0.20995,1.99437 0.62706,2.72673c0.4171,0.73379 1.01757,1.37051 1.80559,1.913c0.78662,0.54392 1.7482,1.02788 2.88195,1.45188c1.13514,0.42543 2.42005,0.87655 3.85612,1.34766l3.544,1.13352c2.2213,0.7081 4.22564,1.45188 6.00744,2.23136c1.7832,0.77947 3.30045,1.71313 4.55037,2.79954c1.25132,1.08641 2.2129,2.38553 2.88335,3.89737c0.67185,1.51184 1.00777,3.37773 1.00777,5.59766c0,2.36269 -0.46329,4.52409 -1.38849,6.48277c-0.92799,1.96154 -2.22269,3.62613 -3.89112,4.99521c-1.66702,1.3705 -3.64617,2.43407 -5.94025,3.18785c-2.29268,0.75521 -4.82751,1.13495 -7.60588,1.13495c-5.14104,0 -9.42547,-1.22774 -12.85189,-3.68466c-3.42783,-2.45692 -5.53435,-6.16442 -6.32237,-11.12536l8.47508,-0.77947z"/>
     <path fill="#000000" id="Fill-11" d="m226.86078,80.61673c-2.49895,0 -4.73345,0.47036 -6.70071,1.40824c-1.96866,0.9393 -3.63509,2.24097 -4.9993,3.90641c-1.36701,1.66687 -2.40941,3.63927 -3.12719,5.91292c-0.71638,2.27791 -1.07458,4.75335 -1.07458,7.42773c0,2.6758 0.36939,5.1626 1.11096,7.46325c0.73877,2.29923 1.79376,4.29294 3.15937,5.98396c1.36421,1.68819 3.03204,3.01401 5.0007,3.97747c1.96586,0.96062 4.20036,1.44093 6.70071,1.44093c2.50035,0 4.73346,-0.45615 6.70211,-1.3713c1.96586,-0.91514 3.6337,-2.19407 4.9993,-3.8382c1.36561,-1.64129 2.4192,-3.62505 3.15937,-5.94702c0.74017,-2.32339 1.11096,-4.86987 1.11096,-7.63804c0,-2.7227 -0.37079,-5.23366 -1.11096,-7.53289c-0.74017,-2.29781 -1.79376,-4.2702 -3.15937,-5.91291c-1.3656,-1.64129 -3.04463,-2.93301 -5.03568,-3.87231c-1.98964,-0.93788 -4.23534,-1.40824 -6.73569,-1.40824m0.06996,-7.61673c3.74983,0 7.17644,0.64657 10.27844,1.93971c3.1006,1.29314 5.73947,3.10211 7.91661,5.42976c2.17434,2.32907 3.86316,5.11429 5.06926,8.3585c1.2033,3.24422 1.80495,6.79395 1.80495,10.64921c0,3.99878 -0.63663,7.60678 -1.90849,10.82684c-1.27606,3.22148 -3.09081,6.0067 -5.45264,8.35708l6.66713,7.97057l0,2.46833l-8.47208,0l-4.6537,-5.78218c-1.62026,0.75173 -3.35806,1.33862 -5.20778,1.76208c-1.85253,0.42347 -3.84358,0.6352 -5.97174,0.6352c-3.84357,0 -7.30376,-0.64799 -10.38198,-1.9397c-3.07961,-1.29314 -5.69609,-3.10354 -7.84805,-5.43119c-2.15335,-2.32764 -3.81978,-5.10008 -4.9993,-8.32298c-1.18091,-3.22005 -1.77137,-6.73426 -1.77137,-10.54405c0,-3.85526 0.59046,-7.3922 1.77137,-10.6151c1.17952,-3.21864 2.85714,-5.99391 5.03428,-8.32156c2.17434,-2.32765 4.80202,-4.14941 7.88163,-5.46671c3.07962,-1.31445 6.49363,-1.97381 10.24346,-1.97381"/>
     <path fill="#000000" id="Fill-13" d="m286,117.70296c3.55271,0 6.32041,-1.12054 8.30452,-3.36447c1.98271,-2.24392 2.97546,-5.67976 2.97546,-10.30893l0,-31.02956l8.72002,0l0,31.24225c0,3.68421 -0.46152,6.83598 -1.38455,9.45818c-0.92443,2.62077 -2.23787,4.77049 -3.94451,6.44772c-1.70663,1.67724 -3.80647,2.90483 -6.29671,3.68421c-2.49163,0.77938 -5.28304,1.16764 -8.37423,1.16764c-3.1386,0 -5.94116,-0.38826 -8.4077,-1.16764c-2.46932,-0.77938 -4.55661,-2.00697 -6.26324,-3.68421c-1.70664,-1.67723 -3.02147,-3.82695 -3.9459,-6.44772c-0.92304,-2.6222 -1.38316,-5.77397 -1.38316,-9.45818l0,-31.24225l8.72002,0l0,31.02956c0,4.62917 0.99136,8.06501 2.97546,10.30893c1.98411,2.24393 4.75181,3.36447 8.30452,3.36447"/>
     <path fill="#000000" id="Fill-15" d="m330.98202,102.20322l16.68559,0l-2.74618,-7.9386c-1.08088,-3.10922 -1.94757,-5.64036 -2.60433,-7.58924c-0.65817,-1.95027 -1.24542,-3.66764 -1.76033,-5.15349l-2.18163,0c-0.28227,0.78853 -0.56455,1.57846 -0.84541,2.36699c-0.28228,0.78993 -0.5986,1.67246 -0.95038,2.6462c-0.3532,0.97513 -0.73903,2.08918 -1.16174,3.34353c-0.4227,1.25154 -0.93903,2.71495 -1.54898,4.38601l-2.88661,7.9386zm-15.98202,19.35964l17.95371,-47.56286l13.30677,0l17.73952,47.56286l0,2.43714l-8.72933,0l-5.06823,-14.27629l-21.89567,0l-5.06823,14.27629l-8.23854,0l0,-2.43714z"/>
     <path fill="#000000" id="Fill-17" d="m383.64549,96.84131l7.60029,0c3.34777,0 5.98469,-0.61036 7.91356,-1.82826c1.92887,-1.21931 2.89541,-3.20892 2.89541,-5.97166c0,-2.80623 -0.97778,-4.76077 -2.93053,-5.86502c-1.95135,-1.10285 -4.57703,-1.65567 -7.87844,-1.65567l-7.60029,0l0,15.32061zm29.35451,27.15869l-8.43758,0l-15.2694,-19.638l-5.64753,0l0,19.638l-8.64549,0l0,-50l16.24578,0c2.55543,0 4.98584,0.17399 7.28559,0.52196c2.30116,0.34797 4.38175,1.14915 6.24178,2.40213c3.94906,2.59857 5.9271,6.52168 5.9271,11.76512c0,2.27585 -0.33717,4.25986 -1.01291,5.95482c-0.67433,1.69356 -1.56922,3.13175 -2.68327,4.31598c-1.11687,1.18423 -2.40652,2.14677 -3.86898,2.88761c-1.46527,0.74365 -2.98813,1.30069 -4.5686,1.67111l14.43351,18.04266l0,2.43861z"/>
     <polygon points="424,74 456.50982666015625,74 456.50982666015625,81.65939331054688 432.5997009277344,81.65939331054688 432.5997009277344,94.7514877319336 454.8321533203125,94.7514877319336 454.8321533203125,102.27197265625 432.5997009277344,102.27197265625 432.5997009277344,116.3392105102539 457,116.3392105102539 457,124 424,124 " fill="#000000" id="Fill-19"/>
     <path fill="#000000" id="Fill-21" d="m476.47617,109.41051c0.50807,2.55113 1.70195,4.54836 3.57746,5.98739c1.8755,1.44188 4.34166,2.1614 7.39845,2.1614c3.00921,0 5.3354,-0.70809 6.98136,-2.12571c1.64317,-1.41619 2.46615,-3.28207 2.46615,-5.59766c0,-1.13352 -0.21974,-2.09002 -0.66062,-2.86949c-0.43949,-0.77948 -1.05392,-1.44046 -1.84052,-1.98438c-0.78799,-0.54106 -1.76073,-1.00361 -2.91683,-1.3805c-1.15889,-0.37831 -2.45635,-0.77947 -3.89237,-1.2049l-3.74962,-1.06214c-2.22261,-0.61387 -4.21569,-1.35766 -5.97503,-2.23278c-1.76073,-0.8737 -3.26534,-1.90158 -4.51381,-3.08221c-1.25127,-1.18063 -2.20162,-2.53829 -2.84965,-4.0744c-0.64803,-1.53468 -0.97274,-3.31919 -0.97274,-5.34925c0,-2.12571 0.41709,-4.08582 1.25127,-5.88175c0.83278,-1.79308 2.01407,-3.33061 3.54247,-4.60547c1.52839,-1.27486 3.38011,-2.27846 5.55793,-3.01226c2.17503,-0.7295 4.62999,-1.0964 7.36207,-1.0964c5.14084,0 9.21517,1.23916 12.22718,3.71892c3.00921,2.48119 4.76994,5.79895 5.27941,9.95615l-8.33621,0.70809c-0.50946,-2.12571 -1.5284,-3.77888 -3.05539,-4.95951c-1.5284,-1.18063 -3.66004,-1.77166 -6.39212,-1.77166c-2.54733,0 -4.53901,0.60245 -5.97363,1.80735c-1.43602,1.2049 -2.15403,2.75243 -2.15403,4.64116c0,1.08641 0.20854,1.99437 0.62563,2.72673c0.41709,0.73379 1.01754,1.37051 1.80553,1.913c0.78659,0.54392 1.74814,1.02788 2.88324,1.45188c1.1351,0.42543 2.41996,0.87655 3.85458,1.34766l3.54387,1.13352c2.22262,0.7081 4.22549,1.45188 6.00862,2.23136c1.78173,0.77947 3.30033,1.71313 4.5488,2.79954c1.25128,1.08641 2.21282,2.38553 2.88464,3.89737c0.67043,1.51184 1.00774,3.37773 1.00774,5.59766c0,2.36269 -0.46328,4.52409 -1.38983,6.48277c-0.92796,1.96154 -2.22262,3.62613 -3.89098,4.99521c-1.66696,1.3705 -3.64604,2.43407 -5.93864,3.18785c-2.29399,0.75521 -4.82873,1.13495 -7.607,1.13495c-5.13944,0 -9.42512,-1.22774 -12.85141,-3.68466c-3.4277,-2.45692 -5.53415,-6.16442 -6.32214,-11.12536l8.47617,-0.77947z"/>
     <path fill="#000000" id="Fill-23" d="m527.86012,97.25878l8.50595,0c1.55951,0 2.98907,-0.12627 4.28867,-0.38023c1.29817,-0.25255 2.43353,-0.67769 3.40181,-1.2768c0.9697,-0.59771 1.72518,-1.40307 2.26929,-2.4161c0.54269,-1.01161 0.81404,-2.25474 0.81404,-3.72797c0,-1.51812 -0.27135,-2.79352 -0.81404,-3.82899c-0.54411,-1.03547 -1.2896,-1.85206 -2.23359,-2.45117c-0.94542,-0.59912 -2.06793,-1.02425 -3.3661,-1.2768c-1.30103,-0.25256 -2.70631,-0.38024 -4.21727,-0.38024l-8.64876,0l0,15.7383zm-8.86012,-23.25878l18.57141,0c3.44893,0 6.34375,0.39426 8.68303,1.1842c2.33928,0.78852 4.22869,1.87871 5.6711,3.27337c1.43956,1.39185 2.48067,3.02784 3.11761,4.90936c0.63695,1.87872 0.95685,3.91037 0.95685,6.09216c0,2.6013 -0.43701,4.86306 -1.31102,6.78948c-0.87402,1.92642 -2.13792,3.51611 -3.79169,4.77046c-1.6552,1.25294 -3.66315,2.193 -6.02528,2.82018c-2.36356,0.62717 -5.03273,0.94006 -8.00896,0.94006l-9.00293,0l0,19.22073l-8.86012,0l0,-50z"/>
     <path fill="#000000" id="Fill-25" d="m573.98202,102.20322l16.68559,0l-2.74618,-7.9386c-1.08088,-3.10922 -1.94899,-5.64036 -2.60575,-7.58924c-0.65675,-1.95027 -1.244,-3.66764 -1.75891,-5.15349l-2.18304,0c-0.28086,0.78853 -0.56314,1.57846 -0.84542,2.36699c-0.28086,0.78993 -0.5986,1.67246 -0.95038,2.6462c-0.35178,0.97513 -0.73761,2.08918 -1.16032,3.34353c-0.4227,1.25154 -0.93903,2.71495 -1.54898,4.38601l-2.88661,7.9386zm-15.98202,19.35964l17.95371,-47.56286l13.30535,0l17.74094,47.56286l0,2.43714l-8.72933,0l-5.06823,-14.27629l-21.89567,0l-5.06965,14.27629l-8.23712,0l0,-2.43714z"/>
     <path fill="#000000" id="Fill-27" d="m660,110.78026c-0.79433,1.95214 -1.83601,3.78912 -3.1208,5.51235c-1.28761,1.72322 -2.84236,3.23297 -4.66566,4.52222c-1.82329,1.28926 -3.94057,2.30887 -6.34902,3.05883c-2.40844,0.74996 -5.08543,1.12634 -8.03239,1.12634c-3.74128,0 -7.14335,-0.65165 -10.2062,-1.95355c-3.06285,-1.29908 -5.67766,-3.10095 -7.84299,-5.39999c-2.16534,-2.30184 -3.8374,-5.04186 -5.01618,-8.22567c-1.17878,-3.18242 -1.76676,-6.63307 -1.76676,-10.35197c0,-3.71609 0.58798,-7.16675 1.76676,-10.35057c1.17878,-3.18241 2.86073,-5.93647 5.0501,-8.26079c2.18936,-2.3215 4.81689,-4.14725 7.87974,-5.47021c3.06285,-1.32577 6.48753,-1.98725 10.27688,-1.98725c5.51652,0 10.13695,1.27943 13.8542,3.83406c3.71868,2.55464 6.34903,5.94772 7.89247,10.17642l-8.9087,1.74148c-1.21695,-2.55464 -2.91304,-4.56577 -5.08685,-6.02917c-2.17524,-1.4634 -4.80559,-2.19511 -7.89247,-2.19511c-2.4777,0 -4.68826,0.4747 -6.62887,1.42408c-1.94061,0.94939 -3.57733,2.2569 -4.91017,3.92395c-1.33285,1.66564 -2.3505,3.63323 -3.05155,5.90277c-0.70105,2.26814 -1.05157,4.69778 -1.05157,7.29034c0,2.6389 0.36183,5.08118 1.08691,7.32685c0.72366,2.24707 1.77665,4.18938 3.15613,5.83395c1.37949,1.64317 3.05155,2.92681 5.01618,3.85232c1.96322,0.92692 4.20913,1.39038 6.73347,1.39038c3.27486,0 5.97447,-0.79069 8.10306,-2.37066c2.12859,-1.57997 3.77662,-3.50824 4.94551,-5.78621l8.76877,1.46481z"/>
     <g id="Group-31">
      <mask transform="translate(0,1) translate(-3,-1) translate(-59,1) translate(671,25) translate(62,47) " id="mask-2">
       <use id="svg_2" xlink:href="#path-1"/>
      </mask>
      <g id="Clip-30"/>
      <polygon points="671.4410400390625,73.3963851928711 704.13623046875,73.3963851928711 704.13623046875,81.12996673583984 680.0897827148438,81.12996673583984 680.0897827148438,94.34888458251953 702.448974609375,94.34888458251953 702.448974609375,101.94221496582031 680.0897827148438,101.94221496582031 680.0897827148438,116.14571380615234 704.6292724609375,116.14571380615234 704.6292724609375,123.88072204589844 671.4410400390625,123.88072204589844 " mask="url(#mask-2)" fill="#000000" id="Fill-29"/>
     </g>
    </g>
   </g>
  </g>
 </g>
</svg>